<?xml version="1.0" standalone="no"?>
<!DOCTYPE svg PUBLIC "-//W3C//DTD SVG 20010904//EN"
 "http://www.w3.org/TR/2001/REC-SVG-20010904/DTD/svg10.dtd">
<svg version="1.0" xmlns="http://www.w3.org/2000/svg"
 width="338.000000pt" height="304.000000pt" viewBox="0 0 338.000000 304.000000"
 preserveAspectRatio="xMidYMid meet">

<g transform="translate(0.000000,304.000000) scale(0.100000,-0.100000)"
fill="#000000" stroke="none">
<path d="M477 2779 c-144 -34 -265 -160 -296 -307 -16 -75 -15 -1840 0 -1914
32 -148 142 -266 284 -303 52 -13 203 -15 1206 -15 1120 0 1148 0 1210 20 122
38 223 139 259 258 20 66 20 88 18 1017 l-3 950 -22 55 c-27 67 -106 158 -167
194 -99 58 -58 56 -1306 55 -630 -1 -1162 -5 -1183 -10z m1421 -146 c56 -3
105 -9 107 -14 3 -4 -7 -29 -21 -56 -15 -26 -32 -58 -38 -70 -6 -13 -14 -23
-18 -23 -5 0 -8 -9 -8 -20 0 -11 -3 -20 -7 -20 -5 0 -17 -20 -28 -45 -21 -48
-55 -63 -55 -25 0 11 -4 20 -10 20 -5 0 -10 6 -10 13 0 29 -21 36 -59 19 -20
-9 -37 -20 -39 -24 -2 -5 -12 -8 -23 -8 -10 0 -19 -4 -19 -10 0 -5 -7 -10 -15
-10 -8 0 -15 -4 -15 -10 0 -5 -6 -10 -12 -10 -16 0 -122 -53 -126 -62 -2 -5
-12 -8 -22 -8 -10 0 -20 -3 -22 -7 -1 -5 -52 -33 -113 -63 -60 -30 -111 -58
-113 -62 -2 -5 -12 -8 -23 -8 -10 0 -19 -5 -19 -11 0 -6 -14 -9 -32 -7 -45 4
-68 45 -48 82 7 14 21 26 31 26 9 0 19 3 21 8 4 9 110 62 126 62 6 0 12 3 12
8 0 4 10 12 23 18 92 44 273 140 275 147 2 4 12 7 22 7 10 0 20 3 22 8 2 4 24
17 51 30 26 13 47 25 47 27 0 2 -11 25 -25 51 -14 25 -22 51 -19 56 4 6 26 8
53 4 25 -3 92 -9 149 -13z m362 -375 c19 -21 20 -33 20 -430 l0 -408 -110 0
-110 0 0 411 c0 409 0 412 22 430 16 15 37 19 89 19 57 0 71 -4 89 -22z m-322
-157 c22 -18 22 -23 22 -350 l0 -331 -110 0 -110 0 0 331 c0 327 0 332 22 350
16 15 37 19 88 19 51 0 72 -4 88 -19z m-320 -160 c21 -18 22 -25 22 -270 l0
-251 -110 0 -110 0 0 251 c0 245 1 252 22 270 16 15 37 19 88 19 51 0 72 -4
88 -19z m-320 -157 c21 -15 22 -21 22 -190 l0 -174 -110 0 -110 0 0 170 c0
208 1 210 108 210 45 0 75 -5 90 -16z m-16 -691 c18 -15 48 -71 48 -88 0 -3
-13 -5 -29 -5 -23 0 -31 6 -39 30 -13 34 -51 48 -88 31 -36 -16 -64 -84 -64
-156 0 -71 10 -85 62 -85 33 0 42 5 56 30 12 22 24 30 45 30 39 0 35 -25 -12
-71 -38 -38 -57 -45 -121 -39 -60 5 -90 49 -90 132 0 101 38 174 105 204 38
18 100 11 127 -13z m1011 -13 c37 -41 36 -70 -2 -70 -22 0 -30 6 -35 24 -11
44 -84 47 -106 5 -17 -31 -6 -47 47 -70 67 -29 93 -55 93 -96 0 -45 -14 -69
-51 -89 -70 -35 -157 -13 -187 49 -16 33 -9 47 23 47 16 0 26 -8 33 -29 20
-57 117 -46 117 14 0 26 -7 33 -56 57 -32 14 -64 37 -73 50 -70 99 114 201
197 108z m-723 2 c38 -38 52 -91 40 -153 -12 -63 -21 -79 -64 -117 -40 -35
-77 -45 -156 -40 l-56 3 30 168 29 167 74 0 c68 0 77 -2 103 -28z m217 -47 c7
-38 18 -94 24 -124 l11 -54 67 124 66 124 43 3 c40 3 42 2 37 -20 -7 -29 -55
-300 -55 -310 0 -5 -14 -8 -30 -8 -30 0 -30 1 -24 43 4 23 13 73 20 110 8 38
14 71 14 75 0 4 -29 -45 -64 -108 -53 -97 -67 -115 -86 -115 -22 0 -25 7 -41
85 -9 47 -20 103 -24 125 l-8 40 -8 -60 c-5 -33 -13 -90 -20 -127 -10 -66 -12
-68 -40 -68 -16 0 -29 3 -29 8 0 4 12 80 27 170 l28 163 40 -3 40 -3 12 -70z"/>
<path d="M1423 940 l-20 -120 31 0 c74 0 116 55 116 151 0 66 -18 89 -72 89
l-35 0 -20 -120z"/>
</g>
</svg>